<?xml version="1.0" encoding="UTF-8"?>
<svg id="_圖層_1" data-name="圖層 1" xmlns="http://www.w3.org/2000/svg" viewBox="0 0 138.17 102.03">
  <defs>
    <style>
      .cls-1 {
        fill: #fff;
      }
    </style>
  </defs>
  <g>
    <path class="cls-1" d="M.27,77.08c0-2.49,1.07-4.99,3.67-8.13V14.53C2.07,12.14,0,8.78,0,5.85,0,2.38,1.27,1.3,5.07.65c3.27-.54,7.74-.65,12.08-.65,17.81,0,28.75,13.99,28.75,37.29,0,30.9-11.34,44.23-26.62,44.23H4.4c-3.2,0-4.14-2.06-4.14-4.45ZM19.15,68.52c8.27,0,13.34-9.54,13.34-27.86s-5.67-27.75-14.08-27.75c-.4,0-1,0-1.67.11v55.51h2.4Z"/>
    <path class="cls-1" d="M71.59,77.84c0-2.06,1.13-3.9,3.07-6.83-.93-24.83-2.2-34.37-5.27-34.37-1.6,0-3.07,1.84-4,4.88v29.49c1.93,2.93,3.07,4.77,3.07,6.83,0,1.95-.4,3.69-3.47,3.69h-11.21c-3.07,0-3.47-1.73-3.47-3.69,0-2.06,1.13-3.9,3.07-6.83v-34.15c-2.33-1.19-3.47-3.14-3.47-4.88,0-4.99,7.87-10.08,11.27-10.08,2.07,0,2.8,1.84,3.4,6.94l.2,1.73c1.8-4.55,5.07-8.56,9.21-8.56,8.47,0,11.34,16.05,12.67,49,1.93,2.93,3.07,4.77,3.07,6.83,0,1.95-.4,3.69-3.47,3.69h-11.21c-3.07,0-3.47-1.73-3.47-3.69Z"/>
    <path class="cls-1" d="M92.54,77.08c0-2.49,1.07-4.99,3.67-8.13V14.53c-1.87-2.39-3.94-5.75-3.94-8.67,0-3.47,1.27-4.55,5.07-5.2,3.27-.54,7.74-.65,12.08-.65,17.81,0,28.75,13.99,28.75,37.29,0,30.9-11.34,44.23-26.62,44.23h-14.88c-3.2,0-4.14-2.06-4.14-4.45ZM111.42,68.52c8.27,0,13.34-9.54,13.34-27.86s-5.67-27.75-14.08-27.75c-.4,0-1,0-1.67.11v55.51h2.4Z"/>
  </g>
  <g>
    <path class="cls-1" d="M36.31,94.26c0-4.21,2.34-8.25,7.6-8.25,2.91,0,4.75,1.53,4.77,2.93.02,1.76-1.44,3.41-2.32,3.41-.48,0-.73-.25-1.09-1.05-.54-1.19-1.76-2.43-3.08-2.43s-1.97,1.36-1.97,2.91c0,3.96,1.99,6.89,5.02,6.89.88,0,1.76-.36,2.45-.78.8-.5,1.47.04,1,1.11-.69,1.61-2.55,3.01-5.4,3.01-4.69,0-6.99-3.81-6.99-7.77Z"/>
    <path class="cls-1" d="M50.14,101.11c0-.4.36-.75.96-1.32v-11.41c-.73-.23-1.09-.61-1.09-.94,0-.96,2.78-1.95,3.85-1.95.65,0,1,.31,1,1.34v4.92c.59-.77,1.55-1.42,2.72-1.42,2.66,0,3.52,3.1,3.94,9.46.61.57.96.92.96,1.32,0,.38-.13.71-1.09.71h-3.48c-.96,0-1.09-.33-1.09-.71,0-.4.36-.75.96-1.32-.29-4.88-.69-6.74-1.65-6.74-.52,0-.98.4-1.28,1.07v5.67c.61.57.96.92.96,1.32,0,.38-.13.71-1.09.71h-3.52c-.96,0-1.09-.33-1.09-.71Z"/>
    <path class="cls-1" d="M69.82,100.35c-.63,1.07-1.65,1.67-3.2,1.67-2.22,0-3.41-1.34-3.41-3.31,0-2.95,2.99-4.35,5.9-3.94-.15-1.11-.67-1.82-2.07-1.82-.82,0-1.61.44-2.22.8-.5.29-1.11-.08-.86-.75.65-1.76,2.47-2.68,4.46-2.68,2.74,0,3.98,1.53,4.29,3.75l.63,4.42c.06.48.29.59.82.54.44-.04.67.21.67.67,0,1.26-1.51,2.3-2.89,2.3s-1.95-.44-2.12-1.65ZM67.81,99.56c.77,0,1.42-.8,1.57-1.51l-.1-1.38c-1.4-.02-2.72.29-2.72,1.74,0,.65.36,1.15,1.26,1.15Z"/>
    <path class="cls-1" d="M75.45,101.11c0-.4.36-.75.96-1.32v-6.59c-.73-.23-1.09-.61-1.09-.94,0-.96,2.47-1.95,3.54-1.95.65,0,.88.36,1.07,1.34l.15.88c.65-1.34,1.72-2.18,2.89-2.18,1.51,0,2.34,1.11,2.34,2.3,0,1.78-.98,2.78-1.86,2.78-.42,0-.71-.17-.86-.5-.27-.65-.63-1.32-1.13-1.32s-1.09.77-1.28,1.59v4.38c1.11.59,1.57.98,1.57,1.51,0,.48-.36.73-1.47.73h-3.75c-.96,0-1.09-.33-1.09-.71Z"/>
    <path class="cls-1" d="M92.3,100.35c-.63,1.07-1.65,1.67-3.2,1.67-2.22,0-3.41-1.34-3.41-3.31,0-2.95,2.99-4.35,5.9-3.94-.15-1.11-.67-1.82-2.07-1.82-.82,0-1.61.44-2.22.8-.5.29-1.11-.08-.86-.75.65-1.76,2.47-2.68,4.46-2.68,2.74,0,3.98,1.53,4.29,3.75l.63,4.42c.06.48.29.59.82.54.44-.04.67.21.67.67,0,1.26-1.51,2.3-2.89,2.3s-1.95-.44-2.12-1.65ZM90.29,99.56c.78,0,1.42-.8,1.57-1.51l-.1-1.38c-1.4-.02-2.72.29-2.72,1.74,0,.65.36,1.15,1.26,1.15Z"/>
    <path class="cls-1" d="M97.97,96.35c0-3.75,2.39-6.03,5.42-6.03,2.14,0,3.94,1.03,3.94,2.6,0,1.26-1.13,2.45-2.01,2.45-.44,0-.69-.23-.82-.67-.36-1.26-1-2.18-2.12-2.18-.84,0-1.21,1.05-1.21,2.18,0,2.62,1.38,4.38,3.39,4.38.67,0,1.44-.17,1.86-.38.82-.4,1.24.15.92.98-.54,1.4-2.49,2.34-4.1,2.34-3.47,0-5.28-2.49-5.28-5.67Z"/>
    <path class="cls-1" d="M109.69,98.61v-5.76h-.59c-.71,0-.92-.21-.92-.84s.36-.9.71-1.09c1.03-.52,1.78-1.24,2.55-2.24.44-.5.77-.82,1.19-.82s.82.33.82.98v1.67h2.05c.9,0,1.11.23,1.13,1.13.02.96-.15,1.17-1.03,1.17h-2.16v5.44c0,.65.19,1.05,1.07,1.05.31,0,.92-.1,1.32-.27.1-.04.19-.06.29-.06.44,0,.73.5.4,1.11-.63,1.13-1.74,1.93-3.77,1.93-2.32,0-3.08-1.28-3.08-3.41Z"/>
    <path class="cls-1" d="M117.2,96.42c0-3.16,2.11-6.09,5.72-6.09,3.08,0,3.91,2.22,3.85,3.48-.1,2.13-2.09,3.24-5.9,3.33.48,1.13,1.46,1.78,3.12,1.78.75,0,1.42-.29,2.07-.59.61-.27,1.05.25.75,1.07-.69,1.86-2.78,2.64-4.21,2.64-3.58,0-5.4-2.39-5.4-5.61ZM120.55,95.47c1.97-.17,2.81-.98,2.81-1.74,0-.65-.48-1.26-1.21-1.26-1.15,0-1.61,1.21-1.61,2.55,0,.15,0,.29.02.44Z"/>
    <path class="cls-1" d="M128.02,101.11c0-.4.36-.75.96-1.32v-6.59c-.73-.23-1.09-.61-1.09-.94,0-.96,2.47-1.95,3.54-1.95.65,0,.88.36,1.07,1.34l.15.88c.65-1.34,1.72-2.18,2.89-2.18,1.51,0,2.34,1.11,2.34,2.3,0,1.78-.98,2.78-1.86,2.78-.42,0-.71-.17-.86-.5-.27-.65-.63-1.32-1.13-1.32s-1.09.77-1.28,1.59v4.38c1.11.59,1.57.98,1.57,1.51,0,.48-.36.73-1.47.73h-3.75c-.96,0-1.09-.33-1.09-.71Z"/>
  </g>
</svg>